<svg width="435" height="117" viewBox="0 0 435 117" fill="none" xmlns="http://www.w3.org/2000/svg">
<g clip-path="url(#clip0_2114_8400)">
<path d="M137.135 49.3721V20.665H155.151V24.0413H140.657V33.0335H152.775V36.4098H140.657V46.0128H155.151V49.3891H137.135V49.3721Z" fill="#123274"/>
<path d="M167.201 49.9489C164.657 49.9489 162.567 49.389 160.932 48.2692C159.297 47.1495 158.303 45.5716 157.932 43.5526L161.539 42.9757C161.825 44.1464 162.499 45.0796 163.544 45.7582C164.589 46.4369 165.887 46.7762 167.421 46.7762C168.954 46.7762 170.033 46.4708 170.859 45.86C171.684 45.2492 172.106 44.4179 172.106 43.366C172.106 42.7552 171.971 42.2631 171.684 41.8729C171.415 41.4997 170.842 41.1434 169.965 40.804C169.106 40.4647 167.791 40.0745 166.055 39.5994C164.168 39.0904 162.685 38.5645 161.606 38.0216C160.528 37.4786 159.752 36.8509 159.28 36.1213C158.825 35.4087 158.589 34.5265 158.589 33.5085C158.589 32.253 158.926 31.1332 159.617 30.1831C160.308 29.233 161.269 28.5034 162.499 27.9775C163.73 27.4515 165.162 27.197 166.814 27.197C168.465 27.197 169.898 27.4515 171.179 27.9775C172.46 28.5034 173.488 29.233 174.28 30.1831C175.072 31.1332 175.527 32.236 175.679 33.5085L172.072 34.1702C171.903 33.0165 171.347 32.1003 170.42 31.4386C169.493 30.7769 168.297 30.4206 166.831 30.3867C165.449 30.3358 164.32 30.5733 163.46 31.1332C162.6 31.6761 162.162 32.4227 162.162 33.3388C162.162 33.8648 162.331 34.3059 162.651 34.6792C162.971 35.0524 163.578 35.4087 164.454 35.7311C165.331 36.0704 166.612 36.4437 168.28 36.8678C170.168 37.3429 171.651 37.8689 172.746 38.4287C173.842 38.9886 174.617 39.6503 175.072 40.4138C175.527 41.1773 175.763 42.1104 175.763 43.2302C175.763 45.3001 175.005 46.9289 173.488 48.1335C171.971 49.3212 169.881 49.915 167.201 49.915V49.9489Z" fill="#123274"/>
<path d="M179.319 58.9411V27.8417H182.471V43.6883H182.875V58.9411H179.336H179.319ZM189.161 49.9659C187.156 49.9659 185.47 49.4569 184.088 48.4559C182.706 47.4549 181.678 46.0975 180.971 44.367C180.263 42.6534 179.909 40.7192 179.909 38.5815C179.909 36.4437 180.263 34.4756 180.971 32.762C181.678 31.0484 182.723 29.6911 184.105 28.707C185.487 27.723 187.173 27.231 189.178 27.231C191.184 27.231 192.869 27.723 194.302 28.724C195.734 29.708 196.83 31.0654 197.605 32.779C198.38 34.4926 198.751 36.4267 198.751 38.5815C198.751 40.7362 198.363 42.6703 197.605 44.3839C196.846 46.0975 195.734 47.4549 194.302 48.4559C192.869 49.4569 191.15 49.9659 189.161 49.9659ZM188.723 46.7253C190.139 46.7253 191.302 46.369 192.229 45.6564C193.156 44.9438 193.846 43.9598 194.302 42.7382C194.757 41.5166 194.993 40.1254 194.993 38.5984C194.993 37.0714 194.757 35.7141 194.302 34.4926C193.846 33.271 193.139 32.3039 192.195 31.5743C191.251 30.8618 190.055 30.5055 188.605 30.5055C187.156 30.5055 186.077 30.8448 185.167 31.5404C184.257 32.2191 183.583 33.1692 183.128 34.3908C182.673 35.6123 182.454 37.0205 182.454 38.6154C182.454 40.2102 182.673 41.5845 183.111 42.8061C183.549 44.0446 184.24 44.9947 185.167 45.6904C186.094 46.386 187.274 46.7423 188.706 46.7423L188.723 46.7253Z" fill="#123274"/>
<path d="M208.391 49.9659C206.79 49.9659 205.458 49.6775 204.38 49.0836C203.301 48.4898 202.492 47.7094 201.936 46.7423C201.38 45.7752 201.11 44.7063 201.11 43.5526C201.11 42.3989 201.329 41.4488 201.751 40.6174C202.172 39.7861 202.779 39.0904 203.571 38.5475C204.346 37.9876 205.273 37.5635 206.368 37.2411C207.38 36.9697 208.526 36.7152 209.79 36.5116C211.054 36.308 212.335 36.1213 213.615 35.9517C214.913 35.782 216.126 35.6123 217.239 35.4596L215.975 36.2062C216.009 34.289 215.638 32.8808 214.829 31.9646C214.037 31.0484 212.655 30.5903 210.7 30.5903C209.402 30.5903 208.273 30.8787 207.295 31.4725C206.318 32.0664 205.644 33.0165 205.239 34.3568L201.885 33.3388C202.408 31.4556 203.402 29.9625 204.869 28.8937C206.352 27.8248 208.29 27.2819 210.717 27.2819C212.655 27.2819 214.323 27.6382 215.722 28.3338C217.121 29.0294 218.115 30.0813 218.722 31.4895C219.025 32.1512 219.211 32.8808 219.295 33.6442C219.379 34.4077 219.413 35.2391 219.413 36.0874V49.406H216.278V44.2482L217.003 44.7233C216.194 46.4708 215.065 47.7772 213.632 48.6764C212.183 49.5587 210.43 50.0168 208.357 50.0168L208.391 49.9659ZM208.93 46.9968C210.194 46.9968 211.29 46.7592 212.233 46.3011C213.16 45.8431 213.919 45.2323 214.475 44.4857C215.048 43.7392 215.419 42.9079 215.587 42.0256C215.789 41.3639 215.891 40.6174 215.907 39.803C215.924 38.9886 215.941 38.3609 215.941 37.9198L217.171 38.4627C216.025 38.6154 214.896 38.7681 213.784 38.9208C212.672 39.0735 211.627 39.2262 210.632 39.3958C209.638 39.5655 208.745 39.7521 207.953 39.9897C207.363 40.1763 206.823 40.4138 206.318 40.7022C205.812 40.9907 205.408 41.3639 205.088 41.822C204.784 42.2801 204.616 42.857 204.616 43.5187C204.616 44.0955 204.767 44.6554 205.054 45.1983C205.357 45.7243 205.812 46.1654 206.436 46.4878C207.059 46.8101 207.885 46.9798 208.896 46.9798L208.93 46.9968Z" fill="#123274"/>
<path d="M232.811 49.9659C230.637 49.9659 228.8 49.4738 227.3 48.5068C225.783 47.5227 224.637 46.1824 223.845 44.4688C223.053 42.7552 222.649 40.804 222.615 38.5984C222.649 36.3589 223.053 34.3738 223.879 32.6602C224.705 30.9466 225.851 29.6232 227.368 28.6561C228.884 27.706 230.721 27.214 232.845 27.214C235.103 27.214 237.041 27.7739 238.676 28.8937C240.311 30.0134 241.406 31.5404 241.963 33.4746L238.474 34.5265C238.019 33.271 237.294 32.3039 236.283 31.6083C235.272 30.9127 234.109 30.5733 232.811 30.5733C231.345 30.5733 230.132 30.9127 229.188 31.5913C228.244 32.27 227.536 33.2201 227.064 34.4247C226.592 35.6293 226.356 37.0036 226.356 38.5645C226.39 40.9567 226.929 42.8909 228.008 44.35C229.087 45.8091 230.688 46.5556 232.811 46.5556C234.21 46.5556 235.373 46.2333 236.3 45.5886C237.227 44.9438 237.918 44.0107 238.407 42.7891L241.979 43.7223C241.238 45.7243 240.092 47.2682 238.508 48.3201C236.94 49.389 235.036 49.915 232.828 49.915L232.811 49.9659Z" fill="#123274"/>
<path d="M245.03 24.0244V20.3596H248.552V24.0244H245.03ZM245.03 49.3721V27.8418H248.552V49.3721H245.03Z" fill="#123274"/>
<path d="M262.827 49.9659C260.703 49.9659 258.866 49.4739 257.333 48.5068C255.799 47.5397 254.603 46.1993 253.777 44.4857C252.951 42.7721 252.53 40.804 252.53 38.5815C252.53 36.3589 252.951 34.3399 253.794 32.6432C254.636 30.9466 255.833 29.6232 257.383 28.6731C258.934 27.723 260.737 27.2479 262.827 27.2479C264.917 27.2479 266.804 27.723 268.355 28.6901C269.905 29.6571 271.085 30.9975 271.911 32.6941C272.737 34.3908 273.141 36.3589 273.141 38.5815C273.141 40.804 272.72 42.8061 271.894 44.5197C271.068 46.2333 269.872 47.5567 268.321 48.5237C266.771 49.4908 264.934 49.9659 262.81 49.9659H262.827ZM262.827 46.6065C265.052 46.6065 266.703 45.86 267.782 44.367C268.86 42.8739 269.4 40.9567 269.4 38.5815C269.4 36.2062 268.844 34.2041 267.748 32.762C266.653 31.3199 265.001 30.6073 262.81 30.6073C261.327 30.6073 260.097 30.9466 259.119 31.6252C258.159 32.3039 257.434 33.237 256.962 34.4417C256.49 35.6463 256.254 37.0205 256.254 38.5815C256.254 41.0076 256.81 42.9418 257.923 44.4009C259.035 45.86 260.67 46.5896 262.81 46.5896L262.827 46.6065Z" fill="#123274"/>
<path d="M292.236 49.9659C290.247 49.9659 288.528 49.4569 287.112 48.4559C285.68 47.4549 284.584 46.0976 283.809 44.384C283.034 42.6704 282.646 40.7362 282.646 38.5815C282.646 36.4268 283.034 34.4926 283.809 32.779C284.584 31.0654 285.68 29.7081 287.112 28.7241C288.545 27.74 290.247 27.231 292.219 27.231C294.191 27.231 295.944 27.723 297.309 28.7071C298.674 29.6911 299.719 31.0484 300.427 32.7621C301.134 34.4757 301.488 36.4098 301.488 38.5815C301.488 40.7532 301.134 42.6534 300.427 44.367C299.719 46.0806 298.674 47.4549 297.309 48.4559C295.944 49.4569 294.241 49.9659 292.236 49.9659ZM292.674 46.7254C294.107 46.7254 295.286 46.3691 296.213 45.6734C297.14 44.9778 297.814 44.0107 298.269 42.7892C298.708 41.5676 298.927 40.1594 298.927 38.5985C298.927 37.0376 298.708 35.5954 298.269 34.3739C297.831 33.1523 297.157 32.2022 296.23 31.5235C295.32 30.8449 294.157 30.4886 292.758 30.4886C291.36 30.4886 290.112 30.8449 289.169 31.5574C288.225 32.27 287.517 33.2541 287.062 34.4757C286.607 35.6972 286.371 37.0715 286.371 38.5815C286.371 40.0915 286.607 41.4828 287.062 42.7213C287.517 43.9598 288.225 44.9269 289.152 45.6395C290.079 46.3521 291.242 46.7084 292.64 46.7084L292.674 46.7254ZM298.927 49.3721V33.5255H298.522V20.665H302.061V49.3721H298.91H298.927Z" fill="#123274"/>
<path d="M316.1 49.9659C313.993 49.9659 312.173 49.4908 310.606 48.5577C309.039 47.6245 307.825 46.3181 306.949 44.6384C306.072 42.9588 305.634 40.9907 305.634 38.7511C305.634 36.5116 306.056 34.3568 306.915 32.6432C307.775 30.9296 308.971 29.5893 310.505 28.6561C312.039 27.723 313.842 27.2479 315.915 27.2479C317.988 27.2479 319.892 27.74 321.409 28.741C322.926 29.742 324.055 31.1672 324.813 33.0165C325.572 34.8658 325.892 37.0714 325.791 39.6164H322.218V38.3439C322.184 35.6972 321.645 33.7291 320.617 32.4057C319.589 31.0993 318.055 30.4376 316.016 30.4376C313.842 30.4376 312.173 31.1502 311.044 32.5584C309.915 33.9666 309.342 35.9856 309.342 38.6154C309.342 41.2452 309.915 43.1284 311.044 44.5197C312.173 45.9109 313.791 46.6065 315.898 46.6065C317.314 46.6065 318.544 46.2842 319.589 45.6225C320.634 44.9778 321.443 44.0277 322.049 42.8061L325.437 43.9768C324.611 45.877 323.347 47.3531 321.679 48.388C320.01 49.423 318.139 49.9489 316.066 49.9489L316.1 49.9659ZM308.196 39.5994V36.7491H324.004V39.5994H308.196Z" fill="#123274"/>
<path d="M344.953 49.9659C342.964 49.9659 341.245 49.4569 339.83 48.4559C338.397 47.4549 337.302 46.0976 336.526 44.384C335.751 42.6704 335.364 40.7362 335.364 38.5815C335.364 36.4268 335.751 34.4926 336.526 32.779C337.302 31.0654 338.397 29.7081 339.83 28.7241C341.262 27.74 342.964 27.231 344.936 27.231C346.908 27.231 348.661 27.723 350.026 28.7071C351.391 29.6911 352.436 31.0484 353.144 32.7621C353.852 34.4757 354.205 36.4098 354.205 38.5815C354.205 40.7532 353.852 42.6534 353.144 44.367C352.436 46.0806 351.391 47.4549 350.026 48.4559C348.661 49.4569 346.959 49.9659 344.953 49.9659ZM345.391 46.7254C346.824 46.7254 348.003 46.3691 348.93 45.6734C349.857 44.9778 350.531 44.0107 350.986 42.7892C351.425 41.5676 351.644 40.1594 351.644 38.5985C351.644 37.0376 351.425 35.5954 350.986 34.3739C350.548 33.1523 349.874 32.2022 348.947 31.5235C348.037 30.8449 346.874 30.4886 345.475 30.4886C344.077 30.4886 342.83 30.8449 341.886 31.5574C340.942 32.27 340.234 33.2541 339.779 34.4757C339.324 35.6972 339.088 37.0715 339.088 38.5815C339.088 40.0915 339.324 41.4828 339.779 42.7213C340.234 43.9598 340.942 44.9269 341.869 45.6395C342.796 46.3521 343.959 46.7084 345.358 46.7084L345.391 46.7254ZM351.644 49.3721V33.5255H351.239V20.665H354.778V49.3721H351.627H351.644Z" fill="#123274"/>
<path d="M365.632 49.9659C364.031 49.9659 362.699 49.6775 361.621 49.0836C360.542 48.4898 359.733 47.7094 359.177 46.7423C358.621 45.7752 358.351 44.7063 358.351 43.5526C358.351 42.3989 358.57 41.4488 358.992 40.6174C359.413 39.7861 360.02 39.0904 360.812 38.5475C361.587 37.9876 362.514 37.5635 363.61 37.2411C364.621 36.9697 365.767 36.7152 367.031 36.5116C368.295 36.308 369.576 36.1213 370.856 35.9517C372.154 35.782 373.368 35.6123 374.48 35.4596L373.216 36.2062C373.25 34.289 372.879 32.8808 372.07 31.9646C371.278 31.0484 369.896 30.5903 367.941 30.5903C366.643 30.5903 365.514 30.8787 364.536 31.4725C363.559 32.0664 362.885 33.0165 362.48 34.3568L359.127 33.3388C359.649 31.4556 360.643 29.9625 362.11 28.8937C363.593 27.8248 365.531 27.2819 367.958 27.2819C369.896 27.2819 371.564 27.6382 372.963 28.3338C374.362 29.0294 375.356 30.0813 375.963 31.4895C376.266 32.1512 376.452 32.8808 376.536 33.6442C376.62 34.4077 376.654 35.2391 376.654 36.0874V49.406H373.519V44.2482L374.244 44.7233C373.435 46.4708 372.306 47.7772 370.873 48.6764C369.424 49.5587 367.671 50.0168 365.598 50.0168L365.632 49.9659ZM366.171 46.9968C367.435 46.9968 368.531 46.7592 369.474 46.3011C370.401 45.8431 371.16 45.2323 371.716 44.4857C372.289 43.7392 372.66 42.9079 372.828 42.0256C373.031 41.3639 373.132 40.6174 373.148 39.803C373.165 38.9886 373.182 38.3609 373.182 37.9198L374.412 38.4627C373.266 38.6154 372.137 38.7681 371.025 38.9208C369.913 39.0735 368.868 39.2262 367.873 39.3958C366.879 39.5655 365.986 39.7521 365.194 39.9897C364.604 40.1763 364.065 40.4138 363.559 40.7022C363.053 40.9907 362.649 41.3639 362.329 41.822C362.025 42.2801 361.857 42.857 361.857 43.5187C361.857 44.0955 362.008 44.6554 362.295 45.1983C362.598 45.7243 363.053 46.1654 363.677 46.4878C364.301 46.8101 365.126 46.9798 366.138 46.9798L366.171 46.9968Z" fill="#123274"/>
<path d="M378.66 30.777V27.8418H392.985V30.777H378.66ZM392.985 49.3721C391.721 49.6266 390.474 49.7284 389.227 49.6775C387.979 49.6266 386.901 49.3721 385.923 48.914C384.963 48.4559 384.221 47.7433 383.732 46.7762C383.311 45.9279 383.075 45.0626 383.041 44.1974C383.008 43.3321 382.991 42.348 382.991 41.2282V21.8527H386.513V41.0755C386.513 41.9578 386.513 42.7043 386.547 43.3321C386.564 43.9598 386.699 44.5027 386.951 44.9439C387.423 45.7922 388.182 46.3012 389.227 46.4369C390.271 46.5896 391.519 46.5387 392.985 46.3181V49.3721Z" fill="#123274"/>
<path d="M404.765 49.9659C402.642 49.9659 400.805 49.4739 399.271 48.5068C397.737 47.5397 396.541 46.1993 395.715 44.4857C394.889 42.7721 394.468 40.804 394.468 38.5815C394.468 36.3589 394.889 34.3399 395.732 32.6432C396.575 30.9466 397.771 29.6232 399.322 28.6731C400.872 27.723 402.675 27.2479 404.765 27.2479C406.855 27.2479 408.743 27.723 410.293 28.6901C411.844 29.6571 413.023 30.9975 413.849 32.6941C414.675 34.3908 415.079 36.3589 415.079 38.5815C415.079 40.804 414.658 42.8061 413.832 44.5197C413.007 46.2333 411.81 47.5567 410.259 48.5237C408.709 49.4908 406.872 49.9659 404.748 49.9659H404.765ZM404.765 46.6065C406.99 46.6065 408.642 45.86 409.72 44.367C410.799 42.8739 411.338 40.9567 411.338 38.5815C411.338 36.2062 410.782 34.2041 409.686 32.762C408.591 31.3199 406.939 30.6073 404.748 30.6073C403.265 30.6073 402.035 30.9466 401.058 31.6252C400.097 32.3039 399.372 33.237 398.9 34.4417C398.428 35.6463 398.192 37.0205 398.192 38.5815C398.192 41.0076 398.749 42.9418 399.861 44.4009C400.973 45.86 402.608 46.5896 404.748 46.5896L404.765 46.6065Z" fill="#123274"/>
<path d="M426.439 49.9489C423.894 49.9489 421.804 49.389 420.169 48.2692C418.534 47.1495 417.54 45.5716 417.169 43.5526L420.776 42.9757C421.062 44.1464 421.737 45.0796 422.781 45.7582C423.826 46.4369 425.124 46.7762 426.658 46.7762C428.191 46.7762 429.27 46.4708 430.096 45.86C430.922 45.2492 431.343 44.4179 431.343 43.366C431.343 42.7552 431.208 42.2631 430.922 41.8729C430.652 41.4997 430.079 41.1434 429.203 40.804C428.343 40.4647 427.028 40.0745 425.293 39.5994C423.405 39.0904 421.922 38.5645 420.843 38.0216C419.765 37.4786 418.989 36.8509 418.518 36.1213C418.063 35.4087 417.827 34.5265 417.827 33.5085C417.827 32.253 418.164 31.1332 418.855 30.1831C419.546 29.233 420.506 28.5034 421.737 27.9775C422.967 27.4515 424.399 27.197 426.051 27.197C427.703 27.197 429.135 27.4515 430.416 27.9775C431.697 28.5034 432.725 29.233 433.517 30.1831C434.309 31.1332 434.764 32.236 434.916 33.5085L431.309 34.1702C431.141 33.0165 430.585 32.1003 429.658 31.4386C428.731 30.7769 427.534 30.4206 426.068 30.3867C424.686 30.3358 423.557 30.5733 422.697 31.1332C421.838 31.6761 421.399 32.4227 421.399 33.3388C421.399 33.8648 421.568 34.3059 421.888 34.6792C422.208 35.0524 422.815 35.4087 423.692 35.7311C424.568 36.0704 425.849 36.4437 427.517 36.8678C429.405 37.3429 430.888 37.8689 431.983 38.4287C433.079 38.9886 433.854 39.6503 434.309 40.4138C434.764 41.1773 435 42.1104 435 43.2302C435 45.3001 434.242 46.9289 432.725 48.1335C431.208 49.3212 429.118 49.915 426.439 49.915V49.9489Z" fill="#123274"/>
<path d="M145.528 89.8539C143.539 89.8539 141.82 89.3449 140.405 88.3439C138.972 87.3429 137.877 85.9855 137.101 84.2719C136.326 82.5583 135.939 80.6242 135.939 78.4695C135.939 76.3147 136.326 74.3806 137.101 72.667C137.877 70.9534 138.972 69.596 140.405 68.612C141.837 67.6279 143.539 67.119 145.511 67.119C147.483 67.119 149.236 67.611 150.601 68.595C151.966 69.5791 153.011 70.9364 153.719 72.65C154.427 74.3636 154.781 76.2978 154.781 78.4695C154.781 80.6411 154.427 82.5414 153.719 84.255C153.011 85.9686 151.966 87.3429 150.601 88.3439C149.236 89.3449 147.534 89.8539 145.528 89.8539ZM145.966 86.5963C147.399 86.5963 148.579 86.24 149.505 85.5444C150.432 84.8488 151.107 83.8817 151.562 82.6601C152 81.4386 152.219 80.0304 152.219 78.4695C152.219 76.9085 152 75.4664 151.562 74.2448C151.123 73.0233 150.449 72.0731 149.522 71.3945C148.612 70.7158 147.449 70.3595 146.051 70.3595C144.652 70.3595 143.405 70.7158 142.461 71.4284C141.517 72.141 140.809 73.1251 140.354 74.3466C139.899 75.5682 139.663 76.9425 139.663 78.4525C139.663 79.9625 139.899 81.3537 140.354 82.5923C140.809 83.8308 141.517 84.7979 142.444 85.5105C143.371 86.2231 144.534 86.5794 145.933 86.5794L145.966 86.5963ZM152.219 89.2601V73.4135H151.814V60.553H155.354V89.2601H152.202H152.219Z" fill="#123274"/>
<path d="M169.392 89.8538C167.286 89.8538 165.466 89.3788 163.898 88.4456C162.331 87.5125 161.117 86.206 160.241 84.5264C159.365 82.8467 158.927 80.8786 158.927 78.6391C158.927 76.3995 159.348 74.2448 160.207 72.5312C161.067 70.8176 162.263 69.4772 163.797 68.5441C165.331 67.6109 167.134 67.1359 169.207 67.1359C171.28 67.1359 173.184 67.6279 174.701 68.6289C176.218 69.6299 177.347 71.0551 178.106 72.9044C178.864 74.7538 179.184 76.9594 179.083 79.5043H175.51V78.2319C175.476 75.5851 174.937 73.617 173.909 72.2936C172.881 70.9872 171.347 70.3255 169.308 70.3255C167.134 70.3255 165.466 71.0381 164.336 72.4463C163.207 73.8545 162.634 75.8735 162.634 78.5033C162.634 81.1331 163.207 83.0164 164.336 84.4076C165.466 85.7989 167.083 86.4945 169.19 86.4945C170.606 86.4945 171.836 86.1721 172.881 85.5104C173.926 84.8657 174.735 83.9156 175.342 82.694L178.729 83.8647C177.903 85.7649 176.639 87.241 174.971 88.2759C173.302 89.3109 171.432 89.8369 169.359 89.8369L169.392 89.8538ZM161.488 79.4874V76.637H177.297V79.4874H161.488Z" fill="#123274"/>
<path d="M198.869 89.8538C196.695 89.8538 194.858 89.3618 193.358 88.3947C191.841 87.4107 190.695 86.0703 189.903 84.3567C189.111 82.6431 188.706 80.692 188.672 78.4864C188.706 76.2468 189.111 74.2617 189.936 72.5481C190.762 70.8345 191.908 69.5112 193.425 68.5441C194.942 67.594 196.779 67.1019 198.902 67.1019C201.161 67.1019 203.099 67.6618 204.734 68.7816C206.368 69.9014 207.464 71.4284 208.02 73.3625L204.531 74.4144C204.076 73.1589 203.352 72.1918 202.34 71.4962C201.329 70.8006 200.166 70.4613 198.869 70.4613C197.402 70.4613 196.189 70.8006 195.245 71.4793C194.301 72.1579 193.594 73.108 193.122 74.3126C192.65 75.5172 192.414 76.8915 192.414 78.4524C192.448 80.8447 192.987 82.7788 194.066 84.238C195.144 85.6971 196.745 86.4436 198.869 86.4436C200.268 86.4436 201.43 86.1212 202.357 85.4765C203.284 84.8318 203.975 83.8986 204.464 82.677L208.037 83.6102C207.295 85.6122 206.149 87.1562 204.565 88.2081C202.998 89.277 201.093 89.8029 198.886 89.8029L198.869 89.8538Z" fill="#123274"/>
<path d="M219.801 89.8538C217.677 89.8538 215.84 89.3618 214.306 88.3947C212.773 87.4276 211.576 86.0873 210.75 84.3737C209.925 82.6601 209.503 80.692 209.503 78.4694C209.503 76.2468 209.925 74.2278 210.767 72.5312C211.61 70.8345 212.806 69.5112 214.357 68.561C215.907 67.6109 217.711 67.1359 219.801 67.1359C221.89 67.1359 223.778 67.6109 225.328 68.578C226.879 69.5451 228.059 70.8854 228.884 72.5821C229.71 74.2787 230.115 76.2468 230.115 78.4694C230.115 80.692 229.693 82.694 228.868 84.4076C228.042 86.1212 226.845 87.4446 225.295 88.4117C223.744 89.3788 221.907 89.8538 219.784 89.8538H219.801ZM219.801 86.4775C222.025 86.4775 223.677 85.731 224.755 84.238C225.834 82.7449 226.373 80.8277 226.373 78.4524C226.373 76.0771 225.817 74.0751 224.722 72.633C223.626 71.1908 221.975 70.4782 219.784 70.4782C218.301 70.4782 217.07 70.8176 216.093 71.4962C215.132 72.1749 214.407 73.108 213.936 74.3126C213.464 75.5172 213.228 76.8915 213.228 78.4524C213.228 80.8786 213.784 82.8128 214.896 84.2719C216.009 85.731 217.643 86.4605 219.784 86.4605L219.801 86.4775Z" fill="#123274"/>
<path d="M233.671 89.26V67.7297H236.839V73.4983H237.244V89.277H233.671V89.26ZM248.923 89.26V78.4694C248.923 77.4514 248.839 76.4674 248.653 75.5172C248.468 74.5671 248.165 73.7188 247.726 72.9723C247.288 72.2258 246.682 71.6319 245.94 71.1908C245.198 70.7497 244.255 70.5291 243.125 70.5291C242.232 70.5291 241.44 70.6818 240.715 70.9703C239.991 71.2587 239.384 71.7168 238.862 72.3445C238.339 72.9723 237.952 73.7188 237.665 74.652C237.379 75.5681 237.244 76.671 237.244 77.9095L234.918 77.1969C234.918 75.1101 235.289 73.3116 236.03 71.8186C236.772 70.3255 237.834 69.1718 239.182 68.3744C240.53 67.577 242.131 67.1698 243.968 67.1698C245.35 67.1698 246.53 67.3904 247.507 67.8315C248.485 68.2726 249.294 68.8495 249.951 69.579C250.591 70.3086 251.114 71.106 251.468 72.0052C251.839 72.9044 252.091 73.8206 252.243 74.7368C252.395 75.653 252.462 76.5352 252.462 77.3666V89.277H248.889L248.923 89.26Z" fill="#123274"/>
<path d="M255.26 70.6479V67.7127H268.035V70.6479H255.26ZM258.883 89.26V66.5421C258.883 65.9822 258.917 65.4223 258.968 64.8454C259.018 64.2686 259.136 63.7087 259.322 63.1488C259.507 62.5889 259.81 62.0969 260.232 61.6218C260.72 61.0789 261.26 60.6887 261.833 60.4511C262.406 60.2136 263.012 60.0779 263.602 60.027C264.192 59.9761 264.782 59.9421 265.321 59.9421H268.035V62.8943H265.524C264.479 62.8943 263.703 63.1488 263.181 63.6578C262.658 64.1668 262.406 64.9472 262.406 65.9822V89.243H258.883V89.26ZM272.197 63.9123V60.2475H275.72V63.9123H272.197ZM272.197 89.26V67.7297H275.72V89.26H272.197Z" fill="#123274"/>
<path d="M286.944 89.8538C285.343 89.8538 284.011 89.5654 282.933 88.9716C281.854 88.3777 281.045 87.5973 280.489 86.6302C279.933 85.6631 279.663 84.5942 279.663 83.4405C279.663 82.2868 279.882 81.3367 280.304 80.5054C280.725 79.674 281.332 78.9784 282.124 78.4355C282.899 77.8756 283.826 77.4514 284.922 77.1291C285.933 76.8576 287.079 76.6031 288.343 76.3995C289.607 76.1959 290.888 76.0093 292.168 75.8396C293.466 75.6699 294.68 75.5003 295.792 75.3476L294.528 76.0941C294.562 74.1769 294.191 72.7687 293.382 71.8525C292.59 70.9363 291.208 70.4782 289.253 70.4782C287.955 70.4782 286.826 70.7667 285.848 71.3605C284.871 71.9543 284.197 72.9044 283.792 74.2448L280.439 73.2268C280.961 71.3435 281.955 69.8505 283.422 68.7816C284.905 67.7127 286.843 67.1698 289.27 67.1698C291.208 67.1698 292.876 67.5261 294.275 68.2217C295.674 68.9173 296.668 69.9692 297.275 71.3775C297.578 72.0391 297.764 72.7687 297.848 73.5322C297.932 74.2957 297.966 75.127 297.966 75.9753V89.2939H294.831V84.1362L295.556 84.6112C294.747 86.3587 293.618 87.6652 292.185 88.5644C290.736 89.4466 288.983 89.9047 286.91 89.9047L286.944 89.8538ZM287.483 86.8847C288.747 86.8847 289.843 86.6472 290.786 86.1891C291.713 85.731 292.472 85.1202 293.028 84.3737C293.601 83.6272 293.972 82.7958 294.14 81.9136C294.343 81.2519 294.444 80.5054 294.461 79.691C294.477 78.8766 294.494 78.2488 294.494 77.8077L295.725 78.3506C294.578 78.5033 293.449 78.656 292.337 78.8087C291.225 78.9614 290.18 79.1141 289.185 79.2838C288.191 79.4534 287.298 79.6401 286.506 79.8776C285.916 80.0642 285.377 80.3018 284.871 80.5902C284.365 80.8786 283.961 81.2519 283.641 81.71C283.337 82.1681 283.169 82.7449 283.169 83.4066C283.169 83.9835 283.32 84.5434 283.607 85.0863C283.91 85.6122 284.365 86.0534 284.989 86.3757C285.613 86.6981 286.438 86.8677 287.45 86.8677L287.483 86.8847Z" fill="#123274"/>
<path d="M302.331 89.26V67.7297H305.499V73.4983H305.904V89.277H302.331V89.26ZM317.583 89.26V78.4694C317.583 77.4514 317.499 76.4674 317.314 75.5172C317.128 74.5671 316.825 73.7188 316.387 72.9723C315.949 72.2258 315.342 71.6319 314.6 71.1908C313.859 70.7497 312.915 70.5291 311.786 70.5291C310.893 70.5291 310.1 70.6818 309.376 70.9703C308.651 71.2587 308.044 71.7168 307.522 72.3445C306.999 72.9723 306.612 73.7188 306.325 74.652C306.039 75.5681 305.904 76.671 305.904 77.9095L303.578 77.1969C303.578 75.1101 303.949 73.3116 304.691 71.8186C305.432 70.3255 306.494 69.1718 307.842 68.3744C309.19 67.577 310.791 67.1698 312.628 67.1698C314.01 67.1698 315.19 67.3904 316.168 67.8315C317.145 68.2726 317.954 68.8495 318.611 69.579C319.252 70.3086 319.774 71.106 320.128 72.0052C320.499 72.9044 320.752 73.8206 320.903 74.7368C321.055 75.653 321.122 76.5352 321.122 77.3666V89.277H317.55L317.583 89.26Z" fill="#123274"/>
<path d="M323.532 89.26V88.6153L336.509 70.9533H324.611V67.7297H342.206V68.4084L329.246 86.0364H341.532V89.26H323.549H323.532Z" fill="#123274"/>
<path d="M350.633 89.8538C349.031 89.8538 347.7 89.5654 346.621 88.9716C345.543 88.3777 344.734 87.5973 344.178 86.6302C343.622 85.6631 343.352 84.5942 343.352 83.4405C343.352 82.2868 343.571 81.3367 343.992 80.5054C344.414 79.674 345.02 78.9784 345.813 78.4355C346.588 77.8756 347.515 77.4514 348.61 77.1291C349.621 76.8576 350.767 76.6031 352.031 76.3995C353.295 76.1959 354.576 76.0093 355.857 75.8396C357.155 75.6699 358.368 75.5003 359.481 75.3476L358.217 76.0941C358.25 74.1769 357.879 72.7687 357.07 71.8525C356.278 70.9363 354.896 70.4782 352.941 70.4782C351.644 70.4782 350.515 70.7667 349.537 71.3605C348.56 71.9543 347.885 72.9044 347.481 74.2448L344.127 73.2268C344.65 71.3435 345.644 69.8505 347.11 68.7816C348.593 67.7127 350.531 67.1698 352.958 67.1698C354.896 67.1698 356.565 67.5261 357.964 68.2217C359.363 68.9173 360.357 69.9692 360.964 71.3775C361.267 72.0391 361.452 72.7687 361.537 73.5322C361.621 74.2957 361.655 75.127 361.655 75.9753V89.2939H358.52V84.1362L359.245 84.6112C358.436 86.3587 357.306 87.6652 355.874 88.5644C354.425 89.4466 352.672 89.9047 350.599 89.9047L350.633 89.8538ZM351.172 86.8847C352.436 86.8847 353.531 86.6472 354.475 86.1891C355.402 85.731 356.16 85.1202 356.717 84.3737C357.29 83.6272 357.66 82.7958 357.829 81.9136C358.031 81.2519 358.132 80.5054 358.149 79.691C358.166 78.8766 358.183 78.2488 358.183 77.8077L359.413 78.3506C358.267 78.5033 357.138 78.656 356.026 78.8087C354.913 78.9614 353.868 79.1141 352.874 79.2838C351.88 79.4534 350.986 79.6401 350.194 79.8776C349.604 80.0642 349.065 80.3018 348.56 80.5902C348.054 80.8786 347.65 81.2519 347.329 81.71C347.026 82.1681 346.857 82.7449 346.857 83.4066C346.857 83.9835 347.009 84.5434 347.296 85.0863C347.599 85.6122 348.054 86.0534 348.678 86.3757C349.301 86.6981 350.127 86.8677 351.138 86.8677L351.172 86.8847Z" fill="#123274"/>
<path d="M45.5039 87.5803L47.6443 88.0384C60.6719 90.8718 74.205 86.5793 83.2553 76.7558L89.5921 69.8844L70.8681 99.7282L70.3625 100.627H70.2277L45.5039 87.5803Z" fill="#F15A24"/>
<path d="M22.7519 24.3129C13.6343 34.1025 10.3311 48.0149 14.0556 60.9093L17.5106 72.8367L0.0505598 38.6664L0 38.3949L0.303359 38.1235L22.7519 24.3129Z" fill="#123274"/>
<path d="M90.0639 36.0366L89.9965 35.816C86.2719 22.8368 75.9577 12.8266 62.947 9.53515L51.3688 6.59998L89.7268 8.97527L89.7774 9.04313L89.7437 9.17886L90.0471 36.0366H90.0639Z" fill="#1659A3"/>
<path d="M89.7606 9.17883L85.5641 24.8897C84.3001 29.6233 83.6765 34.4926 83.6934 39.3789C83.7102 60.1118 82.4294 81.201 71.5422 98.6424L70.8849 99.6944L98.9962 66.8644C103.53 61.5709 104.912 54.2245 102.62 47.6246L89.7606 9.16187V9.17883Z" fill="#1D7EF8"/>
<path d="M116.111 36.4719C119.517 33.1428 119.596 27.6651 116.29 24.2371C112.983 20.8091 107.542 20.7289 104.136 24.0579C100.731 27.387 100.651 32.8646 103.958 36.2926C107.265 39.7207 112.706 39.8009 116.111 36.4719Z" fill="#1659A3"/>
<path d="M70.2276 100.611L64.902 94.8759C58.0258 87.4786 49.97 81.2859 41.1388 76.3996C24.1844 67.0172 9.13446 56.4471 0.0505371 38.6664L15.2185 81.1841C17.6454 87.9367 23.544 92.806 30.5887 93.8749L70.2276 100.611Z" fill="#F8AE31"/>
<path d="M49.1503 115.907C53.294 113.575 54.7758 108.303 52.4599 104.132C50.1441 99.9603 44.9075 98.4686 40.7638 100.8C36.62 103.131 35.1382 108.403 37.4541 112.575C39.77 116.746 45.0065 118.238 49.1503 115.907Z" fill="#F15A24"/>
<path d="M0.168579 38.2592L16.7522 34.7471C21.0329 33.8479 25.1114 32.2022 28.836 29.9117C47.7959 18.2558 66.7053 7.55005 88.9685 8.92433L89.7438 8.97523L45.4365 0.356316C38.4424 -1.00099 31.2629 1.59486 26.7293 7.12589L0.168579 38.2592Z" fill="#046BB2"/>
<path d="M10.7779 20.0898C15.3914 18.9645 18.2252 14.2871 17.1073 9.6427C15.9895 4.99825 11.3434 2.14544 6.72987 3.27077C2.11638 4.39609 -0.717419 9.07342 0.400407 13.7179C1.51823 18.3623 6.16438 21.2151 10.7779 20.0898Z" fill="#123274"/>
</g>
<defs>
<clipPath id="clip0_2114_8400">
<rect width="435" height="117" fill="white"/>
</clipPath>
</defs>
</svg>
