<svg width="873" height="291" viewBox="0 0 873 291" fill="none" xmlns="http://www.w3.org/2000/svg">
<path d="M287.697 132.769V68.5596H300.079V93.9639L323.287 68.5596H338.52L314.949 93.9639L339.262 132.769H324.13L306.059 103.596L300.094 110.013V132.754H287.712L287.697 132.769Z" fill="#041C2E"/>
<path d="M351.994 80.2142C349.797 80.2142 347.978 79.5594 346.537 78.2499C345.097 76.9404 344.384 75.2672 344.384 73.2447C344.384 71.2223 345.097 69.5636 346.537 68.2395C347.978 66.93 349.797 66.2607 351.994 66.2607C354.191 66.2607 356.111 66.9155 357.537 68.2395C358.978 69.549 359.691 71.2223 359.691 73.2447C359.691 75.2672 358.978 76.9259 357.537 78.2499C356.097 79.5594 354.249 80.2142 351.994 80.2142ZM345.752 132.769V86.5434H358.134V132.769H345.752Z" fill="#041C2E"/>
<path d="M389.605 132.769C386.361 132.769 383.538 132.259 381.123 131.256C378.707 130.252 376.83 128.564 375.477 126.207C374.139 123.85 373.455 120.634 373.455 116.531V96.903H365.569V86.5434H373.455L374.837 73.9722H385.851V86.5434H398.044V96.903H385.851V116.72C385.851 118.801 386.317 120.241 387.234 121.027C388.15 121.827 389.707 122.22 391.919 122.22H397.972V132.769H389.62H389.605Z" fill="#041C2E"/>
<path d="M432.717 132.769V68.5596H472.439V74.8888H440.429V97.2667H469.689V103.509H440.429V126.439H472.439V132.769H432.717Z" fill="#041C2E"/>
<path d="M499.676 133.875C495.879 133.875 492.547 133.234 489.68 131.954C486.799 130.674 484.53 128.884 482.842 126.585C481.154 124.286 480.135 121.58 479.772 118.466H487.658C487.963 120.052 488.604 121.522 489.578 122.875C490.553 124.213 491.892 125.305 493.565 126.134C495.253 126.963 497.305 127.371 499.763 127.371C501.902 127.371 503.677 127.051 505.089 126.41C506.5 125.77 507.548 124.897 508.246 123.791C508.944 122.686 509.308 121.493 509.308 120.212C509.308 118.321 508.857 116.88 507.984 115.905C507.097 114.93 505.802 114.145 504.085 113.563C502.368 112.981 500.287 112.472 497.843 112.05C495.82 111.686 493.842 111.191 491.877 110.58C489.913 109.969 488.182 109.154 486.654 108.15C485.126 107.146 483.919 105.909 483.031 104.44C482.143 102.97 481.707 101.166 481.707 99.0273C481.707 96.3937 482.391 94.0658 483.773 92.0142C485.155 89.9627 487.09 88.3621 489.593 87.1981C492.096 86.0341 495.035 85.4521 498.396 85.4521C503.343 85.4521 507.359 86.6452 510.414 89.0314C513.47 91.4176 515.274 94.866 515.827 99.391H508.217C507.911 97.063 506.922 95.2443 505.234 93.9348C503.546 92.6253 501.248 91.956 498.308 91.956C495.369 91.956 493.245 92.538 491.746 93.702C490.248 94.866 489.506 96.3938 489.506 98.2853C489.506 99.5075 489.913 100.599 490.742 101.544C491.572 102.49 492.809 103.305 494.453 103.974C496.097 104.644 498.09 105.196 500.418 105.633C503.474 106.186 506.253 106.913 508.77 107.83C511.273 108.747 513.309 110.114 514.866 111.919C516.423 113.723 517.209 116.269 517.209 119.572C517.209 122.453 516.496 124.955 515.055 127.094C513.615 129.233 511.578 130.906 508.959 132.099C506.325 133.293 503.241 133.889 499.691 133.889L499.676 133.875Z" fill="#041C2E"/>
<path d="M526.463 152.95V86.5435H533.432L534.072 94.0659C535.047 92.5963 536.298 91.2141 537.841 89.89C539.369 88.5805 541.202 87.5038 543.341 86.6745C545.48 85.8451 547.953 85.4377 550.776 85.4377C555.243 85.4377 559.142 86.5144 562.474 88.6533C565.806 90.7921 568.41 93.6876 570.273 97.3251C572.135 100.963 573.066 105.109 573.066 109.751C573.066 114.392 572.135 118.539 570.273 122.176C568.41 125.814 565.791 128.68 562.43 130.746C559.069 132.827 555.155 133.86 550.688 133.86C546.964 133.86 543.661 133.089 540.78 131.561C537.899 130.033 535.702 127.895 534.174 125.145V152.935H526.463V152.95ZM549.757 127.167C552.755 127.167 555.432 126.44 557.789 124.97C560.146 123.501 561.979 121.464 563.289 118.874C564.598 116.269 565.268 113.199 565.268 109.649C565.268 106.099 564.613 103.101 563.289 100.482C561.979 97.8489 560.131 95.8119 557.789 94.3423C555.432 92.8728 552.755 92.1453 549.757 92.1453C546.76 92.1453 544.01 92.8728 541.682 94.3423C539.354 95.8119 537.55 97.8634 536.269 100.482C534.989 103.116 534.349 106.171 534.349 109.649C534.349 113.126 534.989 116.269 536.269 118.874C537.55 121.478 539.354 123.501 541.682 124.97C544.01 126.44 546.702 127.167 549.757 127.167Z" fill="#041C2E"/>
<path d="M597.176 133.875C593.451 133.875 590.323 133.22 587.82 131.896C585.317 130.586 583.44 128.84 582.218 126.672C580.996 124.504 580.385 122.133 580.385 119.572C580.385 116.458 581.2 113.81 582.815 111.642C584.43 109.474 586.729 107.816 589.697 106.695C592.665 105.56 596.157 104.993 600.202 104.993H612.395C612.395 102.126 611.944 99.7111 611.071 97.7905C610.183 95.8699 608.903 94.415 607.215 93.4401C605.527 92.4653 603.432 91.9705 600.93 91.9705C597.991 91.9705 595.459 92.6981 593.32 94.1676C591.181 95.6372 589.857 97.8051 589.377 100.686H581.491C581.855 97.3831 582.975 94.6187 584.837 92.378C586.7 90.1518 589.071 88.4349 591.952 87.2418C594.833 86.0487 597.816 85.4521 600.944 85.4521C605.222 85.4521 608.787 86.2378 611.624 87.7947C614.461 89.3515 616.585 91.5195 617.997 94.3131C619.408 97.0921 620.106 100.38 620.106 104.178V132.798H613.224L612.759 124.635C612.148 125.916 611.362 127.123 610.416 128.258C609.47 129.393 608.365 130.368 607.113 131.197C605.862 132.027 604.407 132.681 602.763 133.162C601.119 133.656 599.242 133.889 597.161 133.889L597.176 133.875ZM598.369 127.356C600.508 127.356 602.457 126.92 604.189 126.032C605.92 125.145 607.419 123.922 608.641 122.365C609.863 120.809 610.795 119.077 611.435 117.186C612.075 115.294 612.395 113.301 612.395 111.22V110.944H600.842C597.845 110.944 595.43 111.293 593.596 111.991C591.763 112.69 590.439 113.679 589.653 114.93C588.853 116.182 588.46 117.608 588.46 119.194C588.46 120.78 588.839 122.278 589.61 123.5C590.366 124.723 591.501 125.668 593 126.338C594.498 127.007 596.288 127.342 598.369 127.342V127.356Z" fill="#041C2E"/>
<path d="M651.025 133.875C646.689 133.875 642.79 132.871 639.327 130.848C635.879 128.826 633.172 126.003 631.208 122.365C629.244 118.728 628.269 114.523 628.269 109.751C628.269 104.978 629.244 100.613 631.208 97.0048C633.158 93.3964 635.864 90.5737 639.327 88.5222C642.775 86.4706 646.675 85.4521 651.025 85.4521C656.525 85.4521 661.108 86.878 664.789 89.7153C668.456 92.5525 670.784 96.3647 671.759 101.137H663.873C663.262 98.2707 661.763 96.03 659.377 94.4441C656.991 92.8581 654.183 92.0578 650.938 92.0578C648.304 92.0578 645.874 92.7126 643.648 94.0366C641.422 95.3461 639.618 97.3249 638.236 99.9585C636.853 102.592 636.17 105.822 636.17 109.678C636.17 112.559 636.562 115.105 637.363 117.331C638.163 119.557 639.225 121.42 640.578 122.875C641.917 124.344 643.503 125.465 645.307 126.221C647.111 126.992 648.988 127.371 650.952 127.371C653.15 127.371 655.143 127.021 656.918 126.323C658.693 125.625 660.192 124.563 661.414 123.151C662.636 121.74 663.465 120.096 663.887 118.204H671.774C670.799 122.846 668.456 126.629 664.76 129.539C661.065 132.449 656.496 133.889 651.04 133.889L651.025 133.875Z" fill="#041C2E"/>
<path d="M685.421 76.7222C683.894 76.7222 682.628 76.2129 681.609 75.209C680.591 74.205 680.096 72.9246 680.096 71.3969C680.096 69.8691 680.605 68.6324 681.609 67.6866C682.613 66.7409 683.894 66.2607 685.421 66.2607C686.949 66.2607 688.142 66.7409 689.175 67.6866C690.208 68.6324 690.732 69.8691 690.732 71.3969C690.732 72.9246 690.208 74.1905 689.175 75.209C688.142 76.2129 686.876 76.7222 685.421 76.7222ZM681.566 132.769V86.5434H689.277V132.769H681.566Z" fill="#041C2E"/>
<path d="M721.651 133.875C717.373 133.875 713.517 132.885 710.098 130.892C706.679 128.899 703.987 126.09 702.023 122.453C700.059 118.815 699.084 114.581 699.084 109.751C699.084 104.92 700.073 100.497 702.067 96.8595C704.06 93.222 706.781 90.4138 710.229 88.4205C713.678 86.4271 717.548 85.4377 721.826 85.4377C726.103 85.4377 730.134 86.4271 733.524 88.4205C736.914 90.4138 739.606 93.222 741.599 96.8595C743.592 100.497 744.582 104.76 744.582 109.649C744.582 114.538 743.578 118.801 741.555 122.438C739.533 126.076 736.812 128.884 733.393 130.877C729.973 132.871 726.06 133.86 721.651 133.86V133.875ZM721.738 127.269C724.372 127.269 726.816 126.614 729.071 125.29C731.327 123.981 733.16 122.002 734.571 119.368C735.983 116.735 736.681 113.505 736.681 109.649C736.681 105.793 735.997 102.476 734.615 99.8859C733.233 97.2814 731.429 95.3317 729.202 94.0222C726.976 92.7127 724.503 92.0434 721.811 92.0434C719.119 92.0434 716.806 92.6982 714.521 94.0222C712.222 95.3317 710.389 97.296 709.021 99.8859C707.639 102.49 706.955 105.735 706.955 109.649C706.955 113.563 707.639 116.749 709.021 119.368C710.404 122.002 712.193 123.966 714.434 125.29C716.66 126.6 719.09 127.269 721.724 127.269H721.738Z" fill="#041C2E"/>
<path d="M771.005 133.875C767.207 133.875 763.875 133.234 761.009 131.954C758.128 130.674 755.858 128.884 754.17 126.585C752.482 124.286 751.464 121.58 751.1 118.466H758.986C759.292 120.052 759.932 121.522 760.907 122.875C761.882 124.213 763.22 125.305 764.894 126.134C766.581 126.963 768.633 127.371 771.092 127.371C773.231 127.371 775.006 127.051 776.417 126.41C777.828 125.77 778.876 124.897 779.574 123.791C780.273 122.686 780.637 121.493 780.637 120.212C780.637 118.321 780.186 116.88 779.313 115.905C778.425 114.93 777.13 114.145 775.413 113.563C773.696 112.981 771.616 112.472 769.171 112.05C767.149 111.686 765.17 111.191 763.206 110.58C761.241 109.969 759.51 109.154 757.982 108.15C756.455 107.146 755.247 105.909 754.359 104.44C753.472 102.97 753.035 101.166 753.035 99.0273C753.035 96.3937 753.719 94.0658 755.101 92.0142C756.484 89.9627 758.419 88.3621 760.921 87.1981C763.424 86.0341 766.363 85.4521 769.724 85.4521C774.671 85.4521 778.687 86.6452 781.742 89.0314C784.798 91.4176 786.602 94.866 787.155 99.391H779.545C779.24 97.063 778.25 95.2443 776.563 93.9348C774.875 92.6253 772.576 91.956 769.637 91.956C766.698 91.956 764.573 92.538 763.075 93.702C761.576 94.866 760.834 96.3938 760.834 98.2853C760.834 99.5075 761.242 100.599 762.071 101.544C762.9 102.49 764.137 103.305 765.781 103.974C767.425 104.644 769.419 105.196 771.747 105.633C774.802 106.186 777.581 106.913 780.098 107.83C782.601 108.747 784.638 110.114 786.195 111.919C787.752 113.723 788.537 116.269 788.537 119.572C788.537 122.453 787.824 124.955 786.384 127.094C784.943 129.233 782.906 130.906 780.287 132.099C777.654 133.293 774.569 133.889 771.019 133.889L771.005 133.875Z" fill="#041C2E"/>
<path d="M308.242 224.739C303.775 224.739 299.846 223.692 296.456 221.582C293.066 219.472 290.447 216.577 288.614 212.91C286.781 209.244 285.864 205.082 285.864 200.441C285.864 195.799 286.781 191.653 288.614 188.015C290.447 184.378 293.066 181.526 296.456 179.445C299.846 177.364 303.804 176.331 308.329 176.331C312.054 176.331 315.342 177.103 318.194 178.63C321.031 180.158 323.257 182.297 324.843 185.047V157.62H332.555V223.663H325.585L324.858 216.053C323.883 217.581 322.632 219.007 321.104 220.316C319.576 221.626 317.757 222.702 315.648 223.532C313.538 224.361 311.079 224.768 308.256 224.768L308.242 224.739ZM309.071 218.046C312.127 218.046 314.818 217.319 317.146 215.849C319.474 214.38 321.293 212.343 322.603 209.753C323.912 207.148 324.581 204.078 324.581 200.528C324.581 196.978 323.927 193.981 322.603 191.362C321.293 188.728 319.474 186.691 317.146 185.221C314.818 183.752 312.127 183.024 309.071 183.024C306.016 183.024 303.484 183.752 301.141 185.221C298.784 186.691 296.966 188.743 295.685 191.362C294.405 193.995 293.765 197.051 293.765 200.528C293.765 204.006 294.405 207.148 295.685 209.753C296.966 212.357 298.784 214.38 301.141 215.849C303.498 217.319 306.147 218.046 309.071 218.046Z" fill="#041C2E"/>
<path d="M363.736 224.739C359.458 224.739 355.631 223.735 352.27 221.713C348.909 219.69 346.275 216.868 344.384 213.23C342.492 209.593 341.547 205.359 341.547 200.528C341.547 195.698 342.478 191.391 344.34 187.782C346.203 184.174 348.836 181.366 352.226 179.343C355.617 177.321 359.516 176.317 363.925 176.317C368.333 176.317 372.305 177.321 375.477 179.343C378.664 181.366 381.094 184.014 382.767 187.273C384.455 190.547 385.284 194.141 385.284 198.055V199.975C385.284 200.644 385.255 201.416 385.197 202.274H347.309V196.309H377.674C377.485 192.089 376.103 188.786 373.499 186.4C370.894 184.014 367.635 182.821 363.736 182.821C361.16 182.821 358.745 183.417 356.49 184.61C354.22 185.803 352.416 187.549 351.077 189.834C349.738 192.133 349.055 194.985 349.055 198.404V200.979C349.055 204.777 349.738 207.949 351.121 210.524C352.503 213.099 354.293 215.02 356.533 216.3C358.759 217.581 361.16 218.221 363.736 218.221C366.98 218.221 369.657 217.508 371.767 216.067C373.877 214.627 375.419 212.663 376.394 210.146H384.004C383.203 212.954 381.894 215.456 380.061 217.624C378.227 219.792 375.943 221.524 373.222 222.804C370.501 224.085 367.329 224.725 363.736 224.725V224.739Z" fill="#041C2E"/>
<path d="M413.904 223.633V159.424H432.804C440.327 159.424 446.525 160.719 451.428 163.324C456.317 165.928 459.94 169.624 462.297 174.425C464.654 179.227 465.833 184.989 465.833 191.711C465.833 198.433 464.654 204.006 462.297 208.778C459.94 213.55 456.317 217.217 451.428 219.792C446.54 222.368 440.327 223.648 432.804 223.648H413.904V223.633ZM421.615 217.217H432.63C438.872 217.217 443.833 216.198 447.529 214.147C451.225 212.095 453.873 209.156 455.459 205.344C457.045 201.517 457.845 196.978 457.845 191.725C457.845 186.473 457.045 181.729 455.459 177.874C453.873 174.018 451.225 171.05 447.529 168.969C443.833 166.888 438.857 165.855 432.63 165.855H421.615V217.217Z" fill="#041C2E"/>
<path d="M489.768 224.739C486.043 224.739 482.915 224.085 480.412 222.761C477.909 221.451 476.032 219.705 474.81 217.537C473.588 215.369 472.977 212.997 472.977 210.422C472.977 207.308 473.792 204.66 475.407 202.492C477.022 200.324 479.321 198.666 482.289 197.545C485.257 196.41 488.749 195.843 492.794 195.843H504.987C504.987 192.977 504.536 190.576 503.663 188.641C502.775 186.72 501.495 185.265 499.807 184.29C498.119 183.315 496.024 182.821 493.522 182.821C490.582 182.821 488.051 183.548 485.912 185.018C483.773 186.487 482.449 188.655 481.969 191.536H474.083C474.446 188.233 475.567 185.469 477.429 183.243C479.292 181.017 481.663 179.3 484.544 178.107C487.425 176.913 490.408 176.317 493.536 176.317C497.814 176.317 501.379 177.103 504.216 178.659C507.053 180.216 509.177 182.384 510.589 185.178C512 187.957 512.698 191.245 512.698 195.043V223.663H505.816L505.351 215.5C504.74 216.78 503.954 217.988 503.008 219.123C502.062 220.258 500.957 221.233 499.705 222.062C498.454 222.891 496.999 223.546 495.355 224.041C493.711 224.536 491.834 224.768 489.753 224.768L489.768 224.739ZM490.961 218.221C493.1 218.221 495.049 217.784 496.781 216.897C498.527 216.009 500.011 214.787 501.233 213.23C502.455 211.673 503.386 209.942 504.027 208.05C504.667 206.159 504.987 204.166 504.987 202.085V201.808H493.434C490.437 201.808 488.022 202.158 486.188 202.856C484.355 203.554 483.031 204.544 482.245 205.795C481.445 207.046 481.052 208.472 481.052 210.058C481.052 211.644 481.43 213.143 482.202 214.365C482.958 215.587 484.093 216.533 485.592 217.202C487.09 217.872 488.88 218.206 490.961 218.206V218.221Z" fill="#041C2E"/>
<path d="M539.674 223.633C536.924 223.633 534.538 223.211 532.515 222.353C530.493 221.495 528.951 220.04 527.889 218.003C526.812 215.951 526.288 213.187 526.288 209.695V183.912H518.213V177.394H526.288L527.292 166.205H533.985V177.394H547.371V183.912H533.985V209.695C533.985 212.575 534.567 214.511 535.731 215.515C536.895 216.518 538.947 217.028 541.871 217.028H546.818V223.633H539.66H539.674Z" fill="#041C2E"/>
<path d="M574.987 224.739C570.709 224.739 566.853 223.75 563.434 221.757C560.015 219.763 557.323 216.955 555.359 213.318C553.395 209.68 552.42 205.446 552.42 200.616C552.42 195.785 553.409 191.362 555.403 187.724C557.396 184.087 560.117 181.279 563.565 179.285C567.014 177.292 570.884 176.302 575.162 176.302C579.439 176.302 583.47 177.292 586.86 179.285C590.25 181.279 592.942 184.087 594.935 187.724C596.928 191.362 597.918 195.625 597.918 200.514C597.918 205.402 596.914 209.666 594.891 213.303C592.869 216.941 590.148 219.749 586.729 221.742C583.31 223.735 579.396 224.725 574.987 224.725V224.739ZM575.074 218.134C577.708 218.134 580.152 217.479 582.407 216.155C584.663 214.845 586.496 212.867 587.907 210.233C589.319 207.6 590.017 204.369 590.017 200.514C590.017 196.658 589.333 193.341 587.951 190.751C586.569 188.146 584.765 186.196 582.538 184.887C580.312 183.577 577.839 182.908 575.147 182.908C572.455 182.908 570.142 183.563 567.857 184.887C565.559 186.196 563.725 188.161 562.358 190.751C560.975 193.355 560.291 196.6 560.291 200.514C560.291 204.428 560.975 207.614 562.358 210.233C563.74 212.867 565.529 214.831 567.77 216.155C569.996 217.464 572.426 218.134 575.06 218.134H575.074Z" fill="#041C2E"/>
<path d="M624.326 224.739C620.528 224.739 617.197 224.099 614.33 222.819C611.449 221.538 609.179 219.749 607.492 217.45C605.804 215.151 604.785 212.445 604.422 209.331H612.308C612.613 210.917 613.253 212.386 614.228 213.739C615.203 215.078 616.542 216.169 618.215 216.999C619.903 217.828 621.954 218.235 624.413 218.235C626.552 218.235 628.327 217.915 629.739 217.275C631.15 216.635 632.198 215.762 632.896 214.656C633.594 213.55 633.958 212.357 633.958 211.077C633.958 209.185 633.507 207.745 632.634 206.77C631.747 205.795 630.452 205.009 628.735 204.427C627.018 203.845 624.937 203.336 622.493 202.914C620.47 202.551 618.491 202.056 616.527 201.445C614.563 200.834 612.832 200.019 611.304 199.015C609.776 198.011 608.568 196.774 607.681 195.305C606.793 193.835 606.357 192.031 606.357 189.892C606.357 187.258 607.041 184.93 608.423 182.879C609.805 180.827 611.74 179.227 614.243 178.063C616.745 176.899 619.685 176.317 623.046 176.317C627.993 176.317 632.008 177.51 635.064 179.896C638.119 182.282 639.924 185.731 640.477 190.256H632.867C632.561 187.928 631.572 186.109 629.884 184.8C628.196 183.49 625.897 182.821 622.958 182.821C620.019 182.821 617.895 183.403 616.396 184.567C614.898 185.731 614.156 187.258 614.156 189.15C614.156 190.372 614.563 191.463 615.392 192.409C616.222 193.355 617.458 194.17 619.103 194.839C620.747 195.508 622.74 196.061 625.068 196.483C628.124 197.036 630.903 197.764 633.42 198.68C635.922 199.597 637.959 200.965 639.516 202.769C641.073 204.573 641.859 207.119 641.859 210.422C641.859 213.303 641.146 215.806 639.705 217.944C638.265 220.083 636.228 221.757 633.609 222.95C630.975 224.143 627.891 224.739 624.341 224.739H624.326Z" fill="#041C2E"/>
<path d="M177.394 130.717H146.417V161.694H177.394V130.717Z" fill="#3F7DD8"/>
<path d="M115.454 161.694V130.717H84.4773V161.694V192.657V223.634H115.454V192.657H146.417V161.694H115.454Z" fill="#3F7DD8"/>
<path d="M146.417 192.656V223.633H177.394H208.371V192.656H177.394H146.417Z" fill="#3F7DD8"/>
<path d="M208.371 99.7402V130.717V161.694V192.657H239.333V161.694V130.717V99.7402H208.371Z" fill="#3F7DD8"/>
<path d="M146.417 99.5365H177.394H208.371V68.5596H177.394H146.417H115.454H84.4773V99.5365H115.454H146.417Z" fill="#3F7DD8"/>
</svg>
